<?xml version="1.0" encoding="utf-8"?>
<!-- Generator: Adobe Illustrator 19.0.0, SVG Export Plug-In . SVG Version: 6.00 Build 0)  -->
<svg version="1.1" id="Layer_1" xmlns="http://www.w3.org/2000/svg" xmlns:xlink="http://www.w3.org/1999/xlink" x="0px" y="0px"
	 viewBox="0 0 3250.8 1890.7" preserveAspectRatio="xMaxYMin meet" style="enable-background:new 0 0 3250.8 1890.7;" xml:space="preserve">
<style type="text/css">
	.st0{fill:#070808; transition:fill 0.2s; }
	.selected .st0, .over .st0{fill:white;}
</style>
<script type="application/ecmascript"> <![CDATA[
	function circle_click(evt) {
		var circle = evt.target;
		var currentRadius = circle.getAttribute("r");
		if (currentRadius == 100)
			circle.setAttribute("r", currentRadius*2);
		else
			circle.setAttribute("r", currentRadius*0.5);
	}
]]> </script>
<g id="XMLID_1_">
	<path id="XMLID_2_" class="st0" d="M3232.7,494.4h-302.6l-307,355.1V18h-246.2v812.8c-43.6-192.4-216-336.5-421.3-336.5
		c-217.5,0-397.9,161.6-427.6,371.1V494.4h-244.7l0,60.2v16.8c-8.4-5.9-16.9-11.5-25.7-16.8c-65.2-39.3-141.5-61.9-223.1-61.9
		c-39,0-76.8,5.2-112.8,14.9c-68.4,16.7-130.7,49-182.3,95c-6.6,5.9-13.1,12-19.4,18.4c-37,37.4-65.8,78.8-86.2,124.4
		c-11.1,23.9-20.1,49-26.8,75c-6.3,24.7-10.4,50.1-12.2,76.3v-95.2v-307H350.1v946.1c0,103.1-83.9,187.1-187,187.1
		c-33.4-0.4-72.9-1.6-72.9-1.6s0.3-0.9-72.3,216.3c59.6,24.3,145.1,30,145.1,30c221.6-0.1,406.3-168.9,428.9-383.1
		c4.3-41,2.8-205.1,2.8-205.1v-237.2v-91.7c1.8,26.2,5.9,51.7,12.2,76.4c25.7,101.1,87.5,188.1,170.9,246.7
		c49.2,35.7,104.6,60.3,166.6,71.8c27.2,5.4,55.3,8.2,84.1,8.2c2.2,0,4.4-0.1,6.5-0.1c2.2,0,4.4,0,6.5-0.1c0.3,0,0.6,0,0.9,0
		c78.5-1.5,152-23.8,215-61.8c8.8-5.3,17.3-10.9,25.6-16.8v28.3h0l0,49.9v0.5l244.7,0v-371c29.7,209.4,210.1,371.1,427.6,371.1
		c196.4,0,375.4-134.1,421.2-333.9h-235c-43.6,77.5-112.5,114.2-188.3,114.4c-117.3,0.3-212.5-95.1-212.5-212.5
		c0-117.3,95.1-212.5,212.5-212.5c83,0,154.8,47.6,189.7,116.9h233.7v527.5h246.2V928.3h3.3l294.1,430H3231l-350.2-464.5
		L3232.7,494.4z M1034.4,1139.8c-117.3,0-212.4-95.1-212.4-212.4c0-117.3,95.1-212.4,212.4-212.4s212.4,95.1,212.4,212.4
		S1151.7,1139.8,1034.4,1139.8z"/>
	<path id="XMLID_5_" class="st0" d="M474.3,356.8c34.9,0,65.6-12.2,88.8-35.4c23.1-23.1,35.4-53.8,35.4-88.8
		c0-32.8-12.3-62.8-35.6-86.9c-23.7-24.4-54.3-37.3-88.5-37.3c-34.2,0-64.8,12.9-88.5,37.3c-23.3,24-35.6,54.1-35.6,86.9
		c0,34.9,12.2,65.6,35.4,88.7C408.6,344.5,439.3,356.8,474.3,356.8z"/>
</g>
</svg>
